<svg width="130" height="40" viewBox="0 0 130 40" fill="none" xmlns="http://www.w3.org/2000/svg">
<g filter="url(#filter0_d_206_6)">
<rect x="4" width="122" height="32" rx="15" fill="url(#paint0_linear_206_6)" shape-rendering="crispEdges"/>
</g>
<path d="M30.858 20.14C30.0273 20.14 29.3133 20.0047 28.716 19.734C28.1187 19.454 27.652 19.0293 27.316 18.46C26.98 17.8813 26.798 17.1627 26.77 16.304C26.7607 15.9027 26.756 15.506 26.756 15.114C26.756 14.722 26.7607 14.3207 26.77 13.91C26.798 13.0607 26.9847 12.3513 27.33 11.782C27.6753 11.2127 28.1467 10.7833 28.744 10.494C29.3507 10.2047 30.0553 10.06 30.858 10.06C31.6607 10.06 32.3653 10.2047 32.972 10.494C33.5787 10.7833 34.0547 11.2127 34.4 11.782C34.7453 12.3513 34.932 13.0607 34.96 13.91C34.9787 14.3207 34.988 14.722 34.988 15.114C34.988 15.506 34.9787 15.9027 34.96 16.304C34.932 17.1627 34.75 17.8813 34.414 18.46C34.078 19.0293 33.6067 19.454 33 19.734C32.4027 20.0047 31.6887 20.14 30.858 20.14ZM30.858 18.53C31.4647 18.53 31.9593 18.3527 32.342 17.998C32.7247 17.634 32.93 17.046 32.958 16.234C32.9767 15.8233 32.986 15.4453 32.986 15.1C32.986 14.7453 32.9767 14.3673 32.958 13.966C32.9393 13.4247 32.8367 12.986 32.65 12.65C32.4727 12.3047 32.23 12.0573 31.922 11.908C31.614 11.7493 31.2593 11.67 30.858 11.67C30.466 11.67 30.116 11.7493 29.808 11.908C29.5 12.0573 29.2527 12.3047 29.066 12.65C28.8887 12.986 28.7907 13.4247 28.772 13.966C28.7627 14.3673 28.758 14.7453 28.758 15.1C28.758 15.4453 28.7627 15.8233 28.772 16.234C28.8 17.046 29.0053 17.634 29.388 17.998C29.7707 18.3527 30.2607 18.53 30.858 18.53ZM38.8844 20C38.7817 20 38.6977 19.9673 38.6324 19.902C38.5764 19.8367 38.5484 19.7573 38.5484 19.664V14.204H36.2664C36.1637 14.204 36.0797 14.1713 36.0144 14.106C35.9584 14.0407 35.9304 13.9613 35.9304 13.868V13.056C35.9304 12.9627 35.9584 12.8833 36.0144 12.818C36.0797 12.7527 36.1637 12.72 36.2664 12.72H42.6224C42.725 12.72 42.809 12.7527 42.8744 12.818C42.9397 12.8833 42.9724 12.9627 42.9724 13.056V13.868C42.9724 13.9613 42.9397 14.0407 42.8744 14.106C42.809 14.1713 42.725 14.204 42.6224 14.204H40.3544V19.664C40.3544 19.7573 40.3217 19.8367 40.2564 19.902C40.191 19.9673 40.1117 20 40.0184 20H38.8844ZM44.4182 20C44.3249 20 44.2455 19.9673 44.1802 19.902C44.1149 19.8367 44.0822 19.7573 44.0822 19.664V13.056C44.0822 12.9627 44.1149 12.8833 44.1802 12.818C44.2455 12.7527 44.3249 12.72 44.4182 12.72H50.4102C50.5129 12.72 50.5922 12.7527 50.6482 12.818C50.7135 12.8833 50.7462 12.9627 50.7462 13.056V19.664C50.7462 19.7573 50.7135 19.8367 50.6482 19.902C50.5922 19.9673 50.5129 20 50.4102 20H49.2482C49.1549 20 49.0755 19.9673 49.0102 19.902C48.9449 19.8367 48.9122 19.7573 48.9122 19.664V14.204H45.9162V19.664C45.9162 19.7573 45.8835 19.8367 45.8182 19.902C45.7622 19.9673 45.6829 20 45.5802 20H44.4182ZM52.9908 22.66C52.8975 22.66 52.8181 22.6273 52.7528 22.562C52.6875 22.4967 52.6548 22.4173 52.6548 22.324V13.056C52.6548 12.9627 52.6875 12.8833 52.7528 12.818C52.8181 12.7527 52.8975 12.72 52.9908 12.72H54.0968C54.1995 12.72 54.2788 12.7527 54.3348 12.818C54.4001 12.8833 54.4328 12.9627 54.4328 13.056V13.616C54.6568 13.3173 54.9508 13.07 55.3148 12.874C55.6788 12.678 56.1315 12.58 56.6728 12.58C57.1675 12.58 57.5968 12.6593 57.9608 12.818C58.3248 12.9767 58.6281 13.2053 58.8708 13.504C59.1135 13.7933 59.3001 14.1387 59.4308 14.54C59.5615 14.9413 59.6361 15.3847 59.6548 15.87C59.6641 16.0287 59.6688 16.192 59.6688 16.36C59.6688 16.528 59.6641 16.696 59.6548 16.864C59.6455 17.3307 59.5755 17.7647 59.4448 18.166C59.3141 18.558 59.1228 18.9033 58.8708 19.202C58.6281 19.4913 58.3248 19.72 57.9608 19.888C57.5968 20.056 57.1675 20.14 56.6728 20.14C56.1688 20.14 55.7395 20.0513 55.3848 19.874C55.0301 19.6873 54.7408 19.4447 54.5168 19.146V22.324C54.5168 22.4173 54.4841 22.4967 54.4188 22.562C54.3628 22.6273 54.2835 22.66 54.1808 22.66H52.9908ZM56.1548 18.642C56.5561 18.642 56.8688 18.558 57.0928 18.39C57.3168 18.2127 57.4755 17.984 57.5688 17.704C57.6715 17.424 57.7321 17.116 57.7508 16.78C57.7695 16.5 57.7695 16.22 57.7508 15.94C57.7321 15.604 57.6715 15.296 57.5688 15.016C57.4755 14.736 57.3168 14.512 57.0928 14.344C56.8688 14.1667 56.5561 14.078 56.1548 14.078C55.7721 14.078 55.4595 14.1667 55.2168 14.344C54.9835 14.5213 54.8108 14.75 54.6988 15.03C54.5961 15.3007 54.5355 15.5807 54.5168 15.87C54.5075 16.038 54.5028 16.2153 54.5028 16.402C54.5028 16.5887 54.5075 16.7707 54.5168 16.948C54.5261 17.228 54.5915 17.4987 54.7128 17.76C54.8341 18.012 55.0115 18.222 55.2448 18.39C55.4781 18.558 55.7815 18.642 56.1548 18.642ZM63.3544 20.14C62.8691 20.14 62.4304 20.0467 62.0384 19.86C61.6464 19.664 61.3337 19.4073 61.1004 19.09C60.8764 18.7633 60.7644 18.3993 60.7644 17.998C60.7644 17.3447 61.0257 16.8267 61.5484 16.444C62.0804 16.052 62.7804 15.7907 63.6484 15.66L65.5664 15.38V15.086C65.5664 14.694 65.4684 14.3907 65.2724 14.176C65.0764 13.9613 64.7404 13.854 64.2644 13.854C63.9284 13.854 63.6531 13.924 63.4384 14.064C63.2331 14.1947 63.0791 14.372 62.9764 14.596C62.9017 14.7173 62.7944 14.778 62.6544 14.778H61.5484C61.4457 14.778 61.3664 14.75 61.3104 14.694C61.2637 14.638 61.2404 14.5633 61.2404 14.47C61.2497 14.3207 61.3104 14.1387 61.4224 13.924C61.5344 13.7093 61.7117 13.504 61.9544 13.308C62.1971 13.1027 62.5097 12.93 62.8924 12.79C63.2751 12.65 63.7371 12.58 64.2784 12.58C64.8664 12.58 65.3611 12.6547 65.7624 12.804C66.1731 12.944 66.4997 13.1353 66.7424 13.378C66.9851 13.6207 67.1624 13.9053 67.2744 14.232C67.3864 14.5587 67.4424 14.904 67.4424 15.268V19.664C67.4424 19.7573 67.4097 19.8367 67.3444 19.902C67.2791 19.9673 67.1997 20 67.1064 20H65.9724C65.8697 20 65.7857 19.9673 65.7204 19.902C65.6644 19.8367 65.6364 19.7573 65.6364 19.664V19.118C65.5151 19.2953 65.3517 19.4633 65.1464 19.622C64.9411 19.7713 64.6891 19.8973 64.3904 20C64.1011 20.0933 63.7557 20.14 63.3544 20.14ZM63.8304 18.81C64.1571 18.81 64.4511 18.74 64.7124 18.6C64.9831 18.46 65.1931 18.2453 65.3424 17.956C65.5011 17.6573 65.5804 17.284 65.5804 16.836V16.542L64.1804 16.766C63.6297 16.85 63.2191 16.9853 62.9484 17.172C62.6777 17.3587 62.5424 17.5873 62.5424 17.858C62.5424 18.0633 62.6031 18.2407 62.7244 18.39C62.8551 18.53 63.0184 18.6373 63.2144 18.712C63.4104 18.7773 63.6157 18.81 63.8304 18.81ZM69.5745 20C69.4811 20 69.4018 19.9673 69.3365 19.902C69.2711 19.8367 69.2385 19.7573 69.2385 19.664V13.056C69.2385 12.9627 69.2711 12.8833 69.3365 12.818C69.4018 12.7527 69.4811 12.72 69.5745 12.72H72.6825C73.6718 12.72 74.4045 12.902 74.8805 13.266C75.3565 13.63 75.5945 14.12 75.5945 14.736C75.5945 15.128 75.5198 15.4313 75.3705 15.646C75.2211 15.8607 75.0158 16.0473 74.7545 16.206C75.0811 16.3553 75.3331 16.584 75.5105 16.892C75.6971 17.1907 75.7905 17.522 75.7905 17.886C75.7905 18.558 75.5385 19.0807 75.0345 19.454C74.5398 19.818 73.8071 20 72.8365 20H69.5745ZM71.0305 18.74H72.7105C73.0838 18.74 73.3825 18.67 73.6065 18.53C73.8305 18.39 73.9425 18.1707 73.9425 17.872C73.9425 17.564 73.8398 17.34 73.6345 17.2C73.4291 17.06 73.1211 16.99 72.7105 16.99H71.0305V18.74ZM71.0305 15.688H72.6545C73.0278 15.688 73.3218 15.6133 73.5365 15.464C73.7511 15.3053 73.8585 15.0767 73.8585 14.778C73.8585 14.4793 73.7465 14.274 73.5225 14.162C73.3078 14.0407 73.0185 13.98 72.6545 13.98H71.0305V15.688ZM77.7226 20C77.6386 20 77.5639 19.9673 77.4986 19.902C77.4332 19.8367 77.4006 19.762 77.4006 19.678V13.056C77.4006 12.9627 77.4332 12.8833 77.4986 12.818C77.5639 12.7527 77.6432 12.72 77.7366 12.72H78.8986C79.0012 12.72 79.0806 12.7527 79.1366 12.818C79.2019 12.8833 79.2346 12.9627 79.2346 13.056V18.586L78.7446 18.236L82.5946 12.944C82.6412 12.8787 82.6926 12.8273 82.7486 12.79C82.8046 12.7433 82.8792 12.72 82.9726 12.72H84.0366C84.1206 12.72 84.1952 12.7527 84.2606 12.818C84.3259 12.874 84.3586 12.944 84.3586 13.028V19.664C84.3586 19.7573 84.3259 19.8367 84.2606 19.902C84.1952 19.9673 84.1159 20 84.0226 20H82.8606C82.7579 20 82.6739 19.9673 82.6086 19.902C82.5526 19.8367 82.5246 19.7573 82.5246 19.664V14.386L83.0426 14.456L79.1646 19.776C79.1272 19.832 79.0759 19.8833 79.0106 19.93C78.9546 19.9767 78.8799 20 78.7866 20H77.7226ZM88.3492 20C88.2466 20 88.1626 19.9673 88.0972 19.902C88.0412 19.8367 88.0132 19.7573 88.0132 19.664V14.204H85.7312C85.6286 14.204 85.5446 14.1713 85.4792 14.106C85.4232 14.0407 85.3952 13.9613 85.3952 13.868V13.056C85.3952 12.9627 85.4232 12.8833 85.4792 12.818C85.5446 12.7527 85.6286 12.72 85.7312 12.72H92.0872C92.1899 12.72 92.2739 12.7527 92.3392 12.818C92.4046 12.8833 92.4372 12.9627 92.4372 13.056V13.868C92.4372 13.9613 92.4046 14.0407 92.3392 14.106C92.2739 14.1713 92.1899 14.204 92.0872 14.204H89.8192V19.664C89.8192 19.7573 89.7866 19.8367 89.7212 19.902C89.6559 19.9673 89.5766 20 89.4832 20H88.3492ZM93.883 20C93.7897 20 93.7104 19.9673 93.645 19.902C93.5797 19.8367 93.547 19.7573 93.547 19.664V13.056C93.547 12.9627 93.5797 12.8833 93.645 12.818C93.7104 12.7527 93.7897 12.72 93.883 12.72H95.059C95.1524 12.72 95.2317 12.7527 95.297 12.818C95.3624 12.8833 95.395 12.9627 95.395 13.056V15.03H96.837C97.789 15.03 98.503 15.254 98.979 15.702C99.455 16.15 99.693 16.766 99.693 17.55C99.693 18.362 99.4364 18.9733 98.923 19.384C98.4097 19.7947 97.677 20 96.725 20H93.883ZM95.367 18.67H96.683C97.1404 18.67 97.4764 18.586 97.691 18.418C97.915 18.25 98.027 17.9607 98.027 17.55C98.027 17.1487 97.9197 16.85 97.705 16.654C97.4997 16.458 97.159 16.36 96.683 16.36H95.367V18.67Z" fill="white"/>
<defs>
<filter id="filter0_d_206_6" x="0" y="0" width="130" height="40" filterUnits="userSpaceOnUse" color-interpolation-filters="sRGB">
<feFlood flood-opacity="0" result="BackgroundImageFix"/>
<feColorMatrix in="SourceAlpha" type="matrix" values="0 0 0 0 0 0 0 0 0 0 0 0 0 0 0 0 0 0 127 0" result="hardAlpha"/>
<feOffset dy="4"/>
<feGaussianBlur stdDeviation="2"/>
<feComposite in2="hardAlpha" operator="out"/>
<feColorMatrix type="matrix" values="0 0 0 0 0 0 0 0 0 0 0 0 0 0 0 0 0 0 0.25 0"/>
<feBlend mode="normal" in2="BackgroundImageFix" result="effect1_dropShadow_206_6"/>
<feBlend mode="normal" in="SourceGraphic" in2="effect1_dropShadow_206_6" result="shape"/>
</filter>
<linearGradient id="paint0_linear_206_6" x1="198.841" y1="86.5882" x2="-66.8571" y2="-86.2617" gradientUnits="userSpaceOnUse">
<stop stop-color="#0075FF"/>
<stop offset="1" stop-color="#3D77AD" stop-opacity="0"/>
</linearGradient>
</defs>
</svg>
