<svg width="130" height="40" viewBox="0 0 130 40" fill="none" xmlns="http://www.w3.org/2000/svg">
<g filter="url(#filter0_d_206_6)">
<rect x="4" width="122" height="32" rx="15" fill="url(#paint0_linear_206_6)" shape-rendering="crispEdges"/>
</g>
<path d="M24.764 20C24.6707 20 24.5913 19.9673 24.526 19.902C24.4607 19.8367 24.428 19.7573 24.428 19.664V18.628C24.428 18.5253 24.4607 18.4413 24.526 18.376C24.5913 18.3107 24.6707 18.278 24.764 18.278H25.282C25.5527 18.278 25.786 18.222 25.982 18.11C26.178 17.9887 26.36 17.802 26.528 17.55C26.696 17.2887 26.864 16.9573 27.032 16.556L29.706 10.466C29.734 10.3727 29.7807 10.3073 29.846 10.27C29.9207 10.2233 30 10.2 30.084 10.2H31.386C31.4607 10.2 31.526 10.228 31.582 10.284C31.6473 10.34 31.68 10.4053 31.68 10.48C31.68 10.5267 31.6753 10.5687 31.666 10.606C31.6567 10.6433 31.6427 10.6807 31.624 10.718L28.81 17.144C28.5767 17.6573 28.3573 18.096 28.152 18.46C27.9467 18.8147 27.7227 19.1087 27.48 19.342C27.2373 19.566 26.948 19.734 26.612 19.846C26.2853 19.9487 25.8887 20 25.422 20H24.764ZM26.934 17.55L23.196 10.648C23.168 10.592 23.154 10.5453 23.154 10.508C23.154 10.424 23.1867 10.354 23.252 10.298C23.3173 10.2327 23.3873 10.2 23.462 10.2H24.834C24.918 10.2 24.988 10.2233 25.044 10.27C25.1093 10.3073 25.1607 10.3727 25.198 10.466L27.956 15.618L26.934 17.55ZM35.392 20.14C34.7946 20.14 34.2906 20.07 33.88 19.93C33.4786 19.79 33.1566 19.6127 32.914 19.398C32.6806 19.1833 32.508 18.9593 32.396 18.726C32.2933 18.4833 32.2326 18.264 32.214 18.068C32.214 17.984 32.242 17.9187 32.298 17.872C32.354 17.8253 32.4146 17.802 32.48 17.802H33.628C33.7213 17.802 33.7913 17.8207 33.838 17.858C33.894 17.8953 33.9406 17.956 33.978 18.04C34.0713 18.32 34.244 18.516 34.496 18.628C34.7573 18.74 35.0793 18.796 35.462 18.796C35.7233 18.796 35.9566 18.7633 36.162 18.698C36.3673 18.6233 36.526 18.516 36.638 18.376C36.75 18.2267 36.806 18.0447 36.806 17.83C36.806 17.522 36.7173 17.2887 36.54 17.13C36.3626 16.962 36.0733 16.878 35.672 16.878H34.902C34.8086 16.878 34.734 16.85 34.678 16.794C34.622 16.738 34.594 16.6633 34.594 16.57V15.982C34.594 15.898 34.622 15.828 34.678 15.772C34.734 15.7067 34.8086 15.674 34.902 15.674H35.616C35.952 15.674 36.204 15.6133 36.372 15.492C36.54 15.3613 36.624 15.1607 36.624 14.89C36.624 14.7313 36.582 14.582 36.498 14.442C36.4233 14.2927 36.2973 14.1713 36.12 14.078C35.9426 13.9847 35.6953 13.938 35.378 13.938C34.9393 13.938 34.6266 14.008 34.44 14.148C34.2533 14.288 34.118 14.498 34.034 14.778C33.9966 14.862 33.95 14.9227 33.894 14.96C33.8473 14.9973 33.7726 15.016 33.67 15.016H32.564C32.4893 15.016 32.424 14.9927 32.368 14.946C32.3213 14.8993 32.298 14.834 32.298 14.75C32.3166 14.498 32.382 14.246 32.494 13.994C32.6153 13.7327 32.7973 13.4947 33.04 13.28C33.292 13.0653 33.6093 12.8973 33.992 12.776C34.3746 12.6453 34.8413 12.58 35.392 12.58C36.1386 12.58 36.7313 12.6827 37.17 12.888C37.6086 13.0933 37.9213 13.3547 38.108 13.672C38.304 13.98 38.402 14.302 38.402 14.638C38.402 14.9833 38.3366 15.282 38.206 15.534C38.0846 15.786 37.856 15.9913 37.52 16.15C37.94 16.3087 38.2293 16.5513 38.388 16.878C38.5466 17.2047 38.6306 17.564 38.64 17.956C38.64 18.4227 38.5046 18.8193 38.234 19.146C37.9633 19.4633 37.5853 19.7107 37.1 19.888C36.6146 20.056 36.0453 20.14 35.392 20.14ZM40.4202 20C40.3268 20 40.2475 19.9673 40.1822 19.902C40.1168 19.8367 40.0842 19.7573 40.0842 19.664V13.056C40.0842 12.9627 40.1168 12.8833 40.1822 12.818C40.2475 12.7527 40.3268 12.72 40.4202 12.72H41.5822C41.6848 12.72 41.7642 12.7527 41.8202 12.818C41.8855 12.8833 41.9182 12.9627 41.9182 13.056V15.562H45.0822V13.056C45.0822 12.9627 45.1148 12.8833 45.1802 12.818C45.2455 12.7527 45.3248 12.72 45.4182 12.72H46.5802C46.6735 12.72 46.7528 12.7527 46.8182 12.818C46.8835 12.8833 46.9162 12.9627 46.9162 13.056V19.664C46.9162 19.7573 46.8835 19.8367 46.8182 19.902C46.7528 19.9673 46.6735 20 46.5802 20H45.4182C45.3248 20 45.2455 19.9673 45.1802 19.902C45.1148 19.8367 45.0822 19.7573 45.0822 19.664V17.032H41.9182V19.664C41.9182 19.7573 41.8855 19.8367 41.8202 19.902C41.7642 19.9673 41.6848 20 41.5822 20H40.4202ZM50.9208 20.14C50.4355 20.14 49.9968 20.0467 49.6048 19.86C49.2128 19.664 48.9001 19.4073 48.6668 19.09C48.4428 18.7633 48.3308 18.3993 48.3308 17.998C48.3308 17.3447 48.5921 16.8267 49.1148 16.444C49.6468 16.052 50.3468 15.7907 51.2148 15.66L53.1328 15.38V15.086C53.1328 14.694 53.0348 14.3907 52.8388 14.176C52.6428 13.9613 52.3068 13.854 51.8308 13.854C51.4948 13.854 51.2195 13.924 51.0048 14.064C50.7995 14.1947 50.6455 14.372 50.5428 14.596C50.4681 14.7173 50.3608 14.778 50.2208 14.778H49.1148C49.0121 14.778 48.9328 14.75 48.8768 14.694C48.8301 14.638 48.8068 14.5633 48.8068 14.47C48.8161 14.3207 48.8768 14.1387 48.9888 13.924C49.1008 13.7093 49.2781 13.504 49.5208 13.308C49.7635 13.1027 50.0761 12.93 50.4588 12.79C50.8415 12.65 51.3035 12.58 51.8448 12.58C52.4328 12.58 52.9275 12.6547 53.3288 12.804C53.7395 12.944 54.0661 13.1353 54.3088 13.378C54.5515 13.6207 54.7288 13.9053 54.8408 14.232C54.9528 14.5587 55.0088 14.904 55.0088 15.268V19.664C55.0088 19.7573 54.9761 19.8367 54.9108 19.902C54.8455 19.9673 54.7661 20 54.6728 20H53.5388C53.4361 20 53.3521 19.9673 53.2868 19.902C53.2308 19.8367 53.2028 19.7573 53.2028 19.664V19.118C53.0815 19.2953 52.9181 19.4633 52.7128 19.622C52.5075 19.7713 52.2555 19.8973 51.9568 20C51.6675 20.0933 51.3221 20.14 50.9208 20.14ZM51.3968 18.81C51.7235 18.81 52.0175 18.74 52.2788 18.6C52.5495 18.46 52.7595 18.2453 52.9088 17.956C53.0675 17.6573 53.1468 17.284 53.1468 16.836V16.542L51.7468 16.766C51.1961 16.85 50.7855 16.9853 50.5148 17.172C50.2441 17.3587 50.1088 17.5873 50.1088 17.858C50.1088 18.0633 50.1695 18.2407 50.2908 18.39C50.4215 18.53 50.5848 18.6373 50.7808 18.712C50.9768 18.7773 51.1821 18.81 51.3968 18.81ZM59.0309 20C58.9282 20 58.8442 19.9673 58.7789 19.902C58.7229 19.8367 58.6949 19.7573 58.6949 19.664V14.204H56.4129C56.3102 14.204 56.2262 14.1713 56.1609 14.106C56.1049 14.0407 56.0769 13.9613 56.0769 13.868V13.056C56.0769 12.9627 56.1049 12.8833 56.1609 12.818C56.2262 12.7527 56.3102 12.72 56.4129 12.72H62.7689C62.8715 12.72 62.9555 12.7527 63.0209 12.818C63.0862 12.8833 63.1189 12.9627 63.1189 13.056V13.868C63.1189 13.9613 63.0862 14.0407 63.0209 14.106C62.9555 14.1713 62.8715 14.204 62.7689 14.204H60.5009V19.664C60.5009 19.7573 60.4682 19.8367 60.4029 19.902C60.3375 19.9673 60.2582 20 60.1649 20H59.0309ZM64.5647 20C64.4714 20 64.392 19.9673 64.3267 19.902C64.2614 19.8367 64.2287 19.7573 64.2287 19.664V13.056C64.2287 12.9627 64.2614 12.8833 64.3267 12.818C64.392 12.7527 64.4714 12.72 64.5647 12.72H65.7407C65.834 12.72 65.9134 12.7527 65.9787 12.818C66.044 12.8833 66.0767 12.9627 66.0767 13.056V15.03H67.5187C68.4707 15.03 69.1847 15.254 69.6607 15.702C70.1367 16.15 70.3747 16.766 70.3747 17.55C70.3747 18.362 70.118 18.9733 69.6047 19.384C69.0914 19.7947 68.3587 20 67.4067 20H64.5647ZM66.0487 18.67H67.3647C67.822 18.67 68.158 18.586 68.3727 18.418C68.5967 18.25 68.7087 17.9607 68.7087 17.55C68.7087 17.1487 68.6014 16.85 68.3867 16.654C68.1814 16.458 67.8407 16.36 67.3647 16.36H66.0487V18.67ZM80.9837 21.708C80.8904 21.708 80.8111 21.6753 80.7457 21.61C80.6804 21.5447 80.6477 21.4653 80.6477 21.372V20H75.1877C75.0944 20 75.0151 19.9673 74.9497 19.902C74.8844 19.8367 74.8517 19.7573 74.8517 19.664V13.056C74.8517 12.9627 74.8844 12.8833 74.9497 12.818C75.0151 12.7527 75.0944 12.72 75.1877 12.72H76.3497C76.4524 12.72 76.5317 12.7527 76.5877 12.818C76.6531 12.8833 76.6857 12.9627 76.6857 13.056V18.516H79.6817V13.056C79.6817 12.9627 79.7144 12.8833 79.7797 12.818C79.8451 12.7527 79.9244 12.72 80.0177 12.72H81.1797C81.2824 12.72 81.3617 12.7527 81.4177 12.818C81.4831 12.8833 81.5157 12.9627 81.5157 13.056V18.516H82.1457C82.2391 18.516 82.3184 18.5487 82.3837 18.614C82.4491 18.6793 82.4817 18.7587 82.4817 18.852V21.372C82.4817 21.4653 82.4491 21.5447 82.3837 21.61C82.3184 21.6753 82.2391 21.708 82.1457 21.708H80.9837ZM86.9018 20.14C85.8658 20.14 85.0445 19.8413 84.4378 19.244C83.8311 18.6467 83.5045 17.7973 83.4578 16.696C83.4485 16.6027 83.4438 16.486 83.4438 16.346C83.4438 16.1967 83.4485 16.08 83.4578 15.996C83.4951 15.296 83.6538 14.6893 83.9338 14.176C84.2231 13.6627 84.6198 13.2707 85.1238 13C85.6278 12.72 86.2205 12.58 86.9018 12.58C87.6578 12.58 88.2925 12.7387 88.8058 13.056C89.3191 13.364 89.7065 13.798 89.9678 14.358C90.2291 14.9087 90.3598 15.548 90.3598 16.276V16.57C90.3598 16.6633 90.3271 16.7427 90.2618 16.808C90.1965 16.8733 90.1125 16.906 90.0098 16.906H85.3618C85.3618 16.906 85.3618 16.92 85.3618 16.948C85.3618 16.976 85.3618 16.9993 85.3618 17.018C85.3711 17.3447 85.4318 17.648 85.5438 17.928C85.6651 18.1987 85.8378 18.418 86.0618 18.586C86.2951 18.754 86.5705 18.838 86.8878 18.838C87.1491 18.838 87.3685 18.8007 87.5458 18.726C87.7231 18.642 87.8678 18.5487 87.9798 18.446C88.0918 18.3433 88.1711 18.2593 88.2178 18.194C88.3018 18.082 88.3671 18.0167 88.4138 17.998C88.4698 17.97 88.5491 17.956 88.6518 17.956H89.8558C89.9491 17.956 90.0238 17.984 90.0798 18.04C90.1451 18.096 90.1731 18.166 90.1638 18.25C90.1545 18.3993 90.0751 18.5813 89.9258 18.796C89.7858 19.0107 89.5805 19.2207 89.3098 19.426C89.0391 19.6313 88.6985 19.804 88.2878 19.944C87.8865 20.0747 87.4245 20.14 86.9018 20.14ZM85.3618 15.73H88.4558V15.688C88.4558 15.324 88.3951 15.0067 88.2738 14.736C88.1525 14.4653 87.9751 14.2507 87.7418 14.092C87.5085 13.9333 87.2285 13.854 86.9018 13.854C86.5751 13.854 86.2951 13.9333 86.0618 14.092C85.8285 14.2507 85.6511 14.4653 85.5298 14.736C85.4178 15.0067 85.3618 15.324 85.3618 15.688V15.73ZM92.1819 20C92.0885 20 92.0092 19.9673 91.9439 19.902C91.8785 19.8367 91.8459 19.7573 91.8459 19.664V13.056C91.8459 12.9627 91.8785 12.8833 91.9439 12.818C92.0092 12.7527 92.0885 12.72 92.1819 12.72H93.3439C93.4465 12.72 93.5259 12.7527 93.5819 12.818C93.6472 12.8833 93.6799 12.9627 93.6799 13.056V15.562H96.8439V13.056C96.8439 12.9627 96.8765 12.8833 96.9419 12.818C97.0072 12.7527 97.0865 12.72 97.1799 12.72H98.3419C98.4352 12.72 98.5145 12.7527 98.5799 12.818C98.6452 12.8833 98.6779 12.9627 98.6779 13.056V19.664C98.6779 19.7573 98.6452 19.8367 98.5799 19.902C98.5145 19.9673 98.4352 20 98.3419 20H97.1799C97.0865 20 97.0072 19.9673 96.9419 19.902C96.8765 19.8367 96.8439 19.7573 96.8439 19.664V17.032H93.6799V19.664C93.6799 19.7573 93.6472 19.8367 93.5819 19.902C93.5259 19.9673 93.4465 20 93.3439 20H92.1819ZM101.087 22.66C100.993 22.66 100.914 22.6273 100.849 22.562C100.783 22.506 100.751 22.4267 100.751 22.324V21.526C100.751 21.4233 100.783 21.3393 100.849 21.274C100.914 21.218 100.993 21.19 101.087 21.19H101.521C101.707 21.19 101.861 21.1527 101.983 21.078C102.104 21.0033 102.216 20.8773 102.319 20.7C102.421 20.532 102.533 20.2987 102.655 20L105.567 12.986C105.604 12.9113 105.651 12.8507 105.707 12.804C105.763 12.748 105.847 12.72 105.959 12.72H107.023C107.097 12.72 107.163 12.748 107.219 12.804C107.284 12.86 107.317 12.9253 107.317 13C107.317 13.0373 107.312 13.07 107.303 13.098C107.303 13.126 107.289 13.168 107.261 13.224L104.601 19.58C104.442 19.9813 104.269 20.364 104.083 20.728C103.905 21.1013 103.705 21.4327 103.481 21.722C103.266 22.0207 103.014 22.2493 102.725 22.408C102.435 22.576 102.095 22.66 101.703 22.66H101.087ZM102.893 19.818L100.051 13.224C100.013 13.1307 99.9945 13.0653 99.9945 13.028C100.004 12.944 100.037 12.874 100.093 12.818C100.149 12.7527 100.219 12.72 100.303 12.72H101.423C101.535 12.72 101.614 12.748 101.661 12.804C101.717 12.86 101.759 12.9207 101.787 12.986L103.957 18.334L102.893 19.818Z" fill="white"/>
<defs>
<filter id="filter0_d_206_6" x="0" y="0" width="130" height="40" filterUnits="userSpaceOnUse" color-interpolation-filters="sRGB">
<feFlood flood-opacity="0" result="BackgroundImageFix"/>
<feColorMatrix in="SourceAlpha" type="matrix" values="0 0 0 0 0 0 0 0 0 0 0 0 0 0 0 0 0 0 127 0" result="hardAlpha"/>
<feOffset dy="4"/>
<feGaussianBlur stdDeviation="2"/>
<feComposite in2="hardAlpha" operator="out"/>
<feColorMatrix type="matrix" values="0 0 0 0 0 0 0 0 0 0 0 0 0 0 0 0 0 0 0.25 0"/>
<feBlend mode="normal" in2="BackgroundImageFix" result="effect1_dropShadow_206_6"/>
<feBlend mode="normal" in="SourceGraphic" in2="effect1_dropShadow_206_6" result="shape"/>
</filter>
<linearGradient id="paint0_linear_206_6" x1="198.841" y1="86.5882" x2="-66.8571" y2="-86.2617" gradientUnits="userSpaceOnUse">
<stop stop-color="#0075FF"/>
<stop offset="1" stop-color="#3D77AD" stop-opacity="0"/>
</linearGradient>
</defs>
</svg>
