<svg width="227" height="75" viewBox="0 0 227 75" fill="none" xmlns="http://www.w3.org/2000/svg">
<g filter="url(#filter0_d_206_6)">
<rect x="4" width="218.844" height="67" rx="15" fill="url(#paint0_linear_206_6)" shape-rendering="crispEdges"/>
</g>
<path d="M41.024 41C40.864 41 40.728 40.944 40.616 40.832C40.504 40.72 40.448 40.584 40.448 40.424V38.648C40.448 38.472 40.504 38.328 40.616 38.216C40.728 38.104 40.864 38.048 41.024 38.048H41.912C42.376 38.048 42.776 37.952 43.112 37.76C43.448 37.552 43.76 37.232 44.048 36.8C44.336 36.352 44.624 35.784 44.912 35.096L49.496 24.656C49.544 24.496 49.624 24.384 49.736 24.32C49.864 24.24 50 24.2 50.144 24.2H52.376C52.504 24.2 52.616 24.248 52.712 24.344C52.824 24.44 52.88 24.552 52.88 24.68C52.88 24.76 52.872 24.832 52.856 24.896C52.84 24.96 52.816 25.024 52.784 25.088L47.96 36.104C47.56 36.984 47.184 37.736 46.832 38.36C46.48 38.968 46.096 39.472 45.68 39.872C45.264 40.256 44.768 40.544 44.192 40.736C43.632 40.912 42.952 41 42.152 41H41.024ZM44.744 36.8L38.336 24.968C38.288 24.872 38.264 24.792 38.264 24.728C38.264 24.584 38.32 24.464 38.432 24.368C38.544 24.256 38.664 24.2 38.792 24.2H41.144C41.288 24.2 41.408 24.24 41.504 24.32C41.616 24.384 41.704 24.496 41.768 24.656L46.496 33.488L44.744 36.8ZM59.2434 41.24C58.2194 41.24 57.3554 41.12 56.6514 40.88C55.9634 40.64 55.4114 40.336 54.9954 39.968C54.5954 39.6 54.2994 39.216 54.1074 38.816C53.9314 38.4 53.8274 38.024 53.7954 37.688C53.7954 37.544 53.8434 37.432 53.9394 37.352C54.0354 37.272 54.1394 37.232 54.2514 37.232H56.2194C56.3794 37.232 56.4994 37.264 56.5794 37.328C56.6754 37.392 56.7554 37.496 56.8194 37.64C56.9794 38.12 57.2754 38.456 57.7074 38.648C58.1554 38.84 58.7074 38.936 59.3634 38.936C59.8114 38.936 60.2114 38.88 60.5634 38.768C60.9154 38.64 61.1874 38.456 61.3794 38.216C61.5714 37.96 61.6674 37.648 61.6674 37.28C61.6674 36.752 61.5154 36.352 61.2114 36.08C60.9074 35.792 60.4114 35.648 59.7234 35.648H58.4034C58.2434 35.648 58.1154 35.6 58.0194 35.504C57.9234 35.408 57.8754 35.28 57.8754 35.12V34.112C57.8754 33.968 57.9234 33.848 58.0194 33.752C58.1154 33.64 58.2434 33.584 58.4034 33.584H59.6274C60.2034 33.584 60.6354 33.48 60.9234 33.272C61.2114 33.048 61.3554 32.704 61.3554 32.24C61.3554 31.968 61.2834 31.712 61.1394 31.472C61.0114 31.216 60.7954 31.008 60.4914 30.848C60.1874 30.688 59.7634 30.608 59.2194 30.608C58.4674 30.608 57.9314 30.728 57.6114 30.968C57.2914 31.208 57.0594 31.568 56.9154 32.048C56.8514 32.192 56.7714 32.296 56.6754 32.36C56.5954 32.424 56.4674 32.456 56.2914 32.456H54.3954C54.2674 32.456 54.1554 32.416 54.0594 32.336C53.9794 32.256 53.9394 32.144 53.9394 32C53.9714 31.568 54.0834 31.136 54.2754 30.704C54.4834 30.256 54.7954 29.848 55.2114 29.48C55.6434 29.112 56.1874 28.824 56.8434 28.616C57.4994 28.392 58.2994 28.28 59.2434 28.28C60.5234 28.28 61.5394 28.456 62.2914 28.808C63.0434 29.16 63.5794 29.608 63.8994 30.152C64.2354 30.68 64.4034 31.232 64.4034 31.808C64.4034 32.4 64.2914 32.912 64.0674 33.344C63.8594 33.776 63.4674 34.128 62.8914 34.4C63.6114 34.672 64.1074 35.088 64.3794 35.648C64.6514 36.208 64.7954 36.824 64.8114 37.496C64.8114 38.296 64.5794 38.976 64.1154 39.536C63.6514 40.08 63.0034 40.504 62.1714 40.808C61.3394 41.096 60.3634 41.24 59.2434 41.24ZM67.8631 41C67.7031 41 67.5671 40.944 67.4551 40.832C67.3431 40.72 67.2871 40.584 67.2871 40.424V29.096C67.2871 28.936 67.3431 28.8 67.4551 28.688C67.5671 28.576 67.7031 28.52 67.8631 28.52H69.8551C70.0311 28.52 70.1671 28.576 70.2631 28.688C70.3751 28.8 70.4311 28.936 70.4311 29.096V33.392H75.8551V29.096C75.8551 28.936 75.9111 28.8 76.0231 28.688C76.1351 28.576 76.2711 28.52 76.4311 28.52H78.4231C78.5831 28.52 78.7191 28.576 78.8311 28.688C78.9431 28.8 78.9991 28.936 78.9991 29.096V40.424C78.9991 40.584 78.9431 40.72 78.8311 40.832C78.7191 40.944 78.5831 41 78.4231 41H76.4311C76.2711 41 76.1351 40.944 76.0231 40.832C75.9111 40.72 75.8551 40.584 75.8551 40.424V35.912H70.4311V40.424C70.4311 40.584 70.3751 40.72 70.2631 40.832C70.1671 40.944 70.0311 41 69.8551 41H67.8631ZM85.8643 41.24C85.0323 41.24 84.2803 41.08 83.6083 40.76C82.9363 40.424 82.4003 39.984 82.0003 39.44C81.6163 38.88 81.4243 38.256 81.4243 37.568C81.4243 36.448 81.8723 35.56 82.7683 34.904C83.6803 34.232 84.8803 33.784 86.3683 33.56L89.6563 33.08V32.576C89.6563 31.904 89.4883 31.384 89.1523 31.016C88.8163 30.648 88.2403 30.464 87.4243 30.464C86.8483 30.464 86.3763 30.584 86.0083 30.824C85.6563 31.048 85.3923 31.352 85.2163 31.736C85.0883 31.944 84.9043 32.048 84.6643 32.048H82.7683C82.5923 32.048 82.4563 32 82.3603 31.904C82.2803 31.808 82.2402 31.68 82.2402 31.52C82.2563 31.264 82.3603 30.952 82.5523 30.584C82.7443 30.216 83.0483 29.864 83.4643 29.528C83.8803 29.176 84.4163 28.88 85.0723 28.64C85.7283 28.4 86.5203 28.28 87.4483 28.28C88.4563 28.28 89.3043 28.408 89.9923 28.664C90.6963 28.904 91.2563 29.232 91.6723 29.648C92.0883 30.064 92.3923 30.552 92.5843 31.112C92.7763 31.672 92.8723 32.264 92.8723 32.888V40.424C92.8723 40.584 92.8163 40.72 92.7043 40.832C92.5923 40.944 92.4563 41 92.2963 41H90.3523C90.1763 41 90.0323 40.944 89.9203 40.832C89.8243 40.72 89.7763 40.584 89.7763 40.424V39.488C89.5683 39.792 89.2883 40.08 88.9363 40.352C88.5843 40.608 88.1523 40.824 87.6403 41C87.1443 41.16 86.5523 41.24 85.8643 41.24ZM86.6803 38.96C87.2403 38.96 87.7443 38.84 88.1923 38.6C88.6563 38.36 89.0163 37.992 89.2723 37.496C89.5443 36.984 89.6803 36.344 89.6803 35.576V35.072L87.2803 35.456C86.3363 35.6 85.6323 35.832 85.1683 36.152C84.7043 36.472 84.4723 36.864 84.4723 37.328C84.4723 37.68 84.5763 37.984 84.7843 38.24C85.0083 38.48 85.2883 38.664 85.6243 38.792C85.9603 38.904 86.3123 38.96 86.6803 38.96ZM99.7672 41C99.5912 41 99.4472 40.944 99.3352 40.832C99.2392 40.72 99.1912 40.584 99.1912 40.424V31.064H95.2792C95.1032 31.064 94.9592 31.008 94.8472 30.896C94.7512 30.784 94.7032 30.648 94.7032 30.488V29.096C94.7032 28.936 94.7512 28.8 94.8472 28.688C94.9592 28.576 95.1032 28.52 95.2792 28.52H106.175C106.351 28.52 106.495 28.576 106.607 28.688C106.719 28.8 106.775 28.936 106.775 29.096V30.488C106.775 30.648 106.719 30.784 106.607 30.896C106.495 31.008 106.351 31.064 106.175 31.064H102.287V40.424C102.287 40.584 102.231 40.72 102.119 40.832C102.007 40.944 101.871 41 101.711 41H99.7672ZM109.254 41C109.094 41 108.958 40.944 108.846 40.832C108.734 40.72 108.678 40.584 108.678 40.424V29.096C108.678 28.936 108.734 28.8 108.846 28.688C108.958 28.576 109.094 28.52 109.254 28.52H111.27C111.43 28.52 111.566 28.576 111.678 28.688C111.79 28.8 111.846 28.936 111.846 29.096V32.48H114.318C115.95 32.48 117.174 32.864 117.99 33.632C118.806 34.4 119.214 35.456 119.214 36.8C119.214 38.192 118.774 39.24 117.894 39.944C117.014 40.648 115.758 41 114.126 41H109.254ZM111.798 38.72H114.054C114.838 38.72 115.414 38.576 115.782 38.288C116.166 38 116.358 37.504 116.358 36.8C116.358 36.112 116.174 35.6 115.806 35.264C115.454 34.928 114.87 34.76 114.054 34.76H111.798V38.72ZM137.401 43.928C137.241 43.928 137.105 43.872 136.993 43.76C136.881 43.648 136.825 43.512 136.825 43.352V41H127.465C127.305 41 127.169 40.944 127.057 40.832C126.945 40.72 126.889 40.584 126.889 40.424V29.096C126.889 28.936 126.945 28.8 127.057 28.688C127.169 28.576 127.305 28.52 127.465 28.52H129.457C129.633 28.52 129.769 28.576 129.865 28.688C129.977 28.8 130.033 28.936 130.033 29.096V38.456H135.169V29.096C135.169 28.936 135.225 28.8 135.337 28.688C135.449 28.576 135.585 28.52 135.745 28.52H137.737C137.913 28.52 138.049 28.576 138.145 28.688C138.257 28.8 138.313 28.936 138.313 29.096V38.456H139.393C139.553 38.456 139.689 38.512 139.801 38.624C139.913 38.736 139.969 38.872 139.969 39.032V43.352C139.969 43.512 139.913 43.648 139.801 43.76C139.689 43.872 139.553 43.928 139.393 43.928H137.401ZM147.546 41.24C145.77 41.24 144.362 40.728 143.322 39.704C142.282 38.68 141.722 37.224 141.642 35.336C141.626 35.176 141.618 34.976 141.618 34.736C141.618 34.48 141.626 34.28 141.642 34.136C141.706 32.936 141.978 31.896 142.458 31.016C142.954 30.136 143.634 29.464 144.498 29C145.362 28.52 146.378 28.28 147.546 28.28C148.842 28.28 149.93 28.552 150.81 29.096C151.69 29.624 152.354 30.368 152.802 31.328C153.25 32.272 153.474 33.368 153.474 34.616V35.12C153.474 35.28 153.418 35.416 153.306 35.528C153.194 35.64 153.05 35.696 152.874 35.696H144.906C144.906 35.696 144.906 35.72 144.906 35.768C144.906 35.816 144.906 35.856 144.906 35.888C144.922 36.448 145.026 36.968 145.218 37.448C145.426 37.912 145.722 38.288 146.106 38.576C146.506 38.864 146.978 39.008 147.522 39.008C147.97 39.008 148.346 38.944 148.65 38.816C148.954 38.672 149.202 38.512 149.394 38.336C149.586 38.16 149.722 38.016 149.802 37.904C149.946 37.712 150.058 37.6 150.138 37.568C150.234 37.52 150.37 37.496 150.546 37.496H152.61C152.77 37.496 152.898 37.544 152.994 37.64C153.106 37.736 153.154 37.856 153.138 38C153.122 38.256 152.986 38.568 152.73 38.936C152.49 39.304 152.138 39.664 151.674 40.016C151.21 40.368 150.626 40.664 149.922 40.904C149.234 41.128 148.442 41.24 147.546 41.24ZM144.906 33.68H150.21V33.608C150.21 32.984 150.106 32.44 149.898 31.976C149.69 31.512 149.386 31.144 148.986 30.872C148.586 30.6 148.106 30.464 147.546 30.464C146.986 30.464 146.506 30.6 146.106 30.872C145.706 31.144 145.402 31.512 145.194 31.976C145.002 32.44 144.906 32.984 144.906 33.608V33.68ZM156.598 41C156.438 41 156.302 40.944 156.19 40.832C156.078 40.72 156.021 40.584 156.021 40.424V29.096C156.021 28.936 156.078 28.8 156.19 28.688C156.302 28.576 156.438 28.52 156.598 28.52H158.59C158.766 28.52 158.902 28.576 158.998 28.688C159.11 28.8 159.166 28.936 159.166 29.096V33.392H164.59V29.096C164.59 28.936 164.646 28.8 164.758 28.688C164.87 28.576 165.006 28.52 165.166 28.52H167.158C167.318 28.52 167.454 28.576 167.566 28.688C167.678 28.8 167.734 28.936 167.734 29.096V40.424C167.734 40.584 167.678 40.72 167.566 40.832C167.454 40.944 167.318 41 167.158 41H165.166C165.006 41 164.87 40.944 164.758 40.832C164.646 40.72 164.59 40.584 164.59 40.424V35.912H159.166V40.424C159.166 40.584 159.11 40.72 158.998 40.832C158.902 40.944 158.766 41 158.59 41H156.598ZM171.863 45.56C171.703 45.56 171.567 45.504 171.455 45.392C171.343 45.296 171.287 45.16 171.287 44.984V43.616C171.287 43.44 171.343 43.296 171.455 43.184C171.567 43.088 171.703 43.04 171.863 43.04H172.607C172.927 43.04 173.191 42.976 173.399 42.848C173.607 42.72 173.799 42.504 173.975 42.2C174.151 41.912 174.343 41.512 174.551 41L179.543 28.976C179.607 28.848 179.687 28.744 179.783 28.664C179.879 28.568 180.023 28.52 180.215 28.52H182.039C182.167 28.52 182.279 28.568 182.375 28.664C182.487 28.76 182.543 28.872 182.543 29C182.543 29.064 182.535 29.12 182.519 29.168C182.519 29.216 182.495 29.288 182.447 29.384L177.887 40.28C177.615 40.968 177.319 41.624 176.999 42.248C176.695 42.888 176.351 43.456 175.967 43.952C175.599 44.464 175.167 44.856 174.671 45.128C174.175 45.416 173.591 45.56 172.919 45.56H171.863ZM174.959 40.688L170.087 29.384C170.023 29.224 169.991 29.112 169.991 29.048C170.007 28.904 170.063 28.784 170.159 28.688C170.255 28.576 170.375 28.52 170.519 28.52H172.439C172.631 28.52 172.767 28.568 172.847 28.664C172.943 28.76 173.015 28.864 173.063 28.976L176.783 38.144L174.959 40.688Z" fill="white"/>
<defs>
<filter id="filter0_d_206_6" x="0" y="0" width="226.844" height="75" filterUnits="userSpaceOnUse" color-interpolation-filters="sRGB">
<feFlood flood-opacity="0" result="BackgroundImageFix"/>
<feColorMatrix in="SourceAlpha" type="matrix" values="0 0 0 0 0 0 0 0 0 0 0 0 0 0 0 0 0 0 127 0" result="hardAlpha"/>
<feOffset dy="4"/>
<feGaussianBlur stdDeviation="2"/>
<feComposite in2="hardAlpha" operator="out"/>
<feColorMatrix type="matrix" values="0 0 0 0 0 0 0 0 0 0 0 0 0 0 0 0 0 0 0.25 0"/>
<feBlend mode="normal" in2="BackgroundImageFix" result="effect1_dropShadow_206_6"/>
<feBlend mode="normal" in="SourceGraphic" in2="effect1_dropShadow_206_6" result="shape"/>
</filter>
<linearGradient id="paint0_linear_206_6" x1="353.507" y1="181.294" x2="-164.04" y2="-107.163" gradientUnits="userSpaceOnUse">
<stop stop-color="#0075FF"/>
<stop offset="1" stop-color="#3D77AD" stop-opacity="0"/>
</linearGradient>
</defs>
</svg>
